PathFileType	4	(X/Y/Z)
DataRate	CameraRate	NumFrames	NumMarkers	Units	OrigDataRate	OrigDataStartFrame	OrigNumFrames	
  120.0	  120.0	    4	     56	     mm	  120.0	      431	    688
Frame#	Time	LASI			RASI			LPSI			RPSI			RTH1			RTH2			RTH3			RLFC			RMFC			LTH1			LTH2			LTH3			LLFC			LMFC			RTB1			RTB2			RTB3			RLMAL			RMMAL			LTB1			LTB2			LTB3			LMMAL			LLMAL			RCAL			RTOE			RMT5			LCAL			LTOE			LMT5			LACR			RACR			CLAV			C7			LASH			LPSH			RASH			RPSH			RUA1			RUA2			RUA3			RLEL			RMEL			LUA1			LUA2			LUA3			LLEL			LMEL			RFAsuperior			RFAradius			RFAulna			LFAsuperior			LFAradius			LFAulna			RHJC			LHJC			
		X1	Y1	Z1	X2	Y2	Z2	X3	Y3	Z3	X4	Y4	Z4	X5	Y5	Z5	X6	Y6	Z6	X7	Y7	Z7	X8	Y8	Z8	X9	Y9	Z9	X10	Y10	Z10	X11	Y11	Z11	X12	Y12	Z12	X13	Y13	Z13	X14	Y14	Z14	X15	Y15	Z15	X16	Y16	Z16	X17	Y17	Z17	X18	Y18	Z18	X19	Y19	Z19	X20	Y20	Z20	X21	Y21	Z21	X22	Y22	Z22	X23	Y23	Z23	X24	Y24	Z24	X25	Y25	Z25	X26	Y26	Z26	X27	Y27	Z27	X28	Y28	Z28	X29	Y29	Z29	X30	Y30	Z30	X31	Y31	Z31	X32	Y32	Z32	X33	Y33	Z33	X34	Y34	Z34	X35	Y35	Z35	X36	Y36	Z36	X37	Y37	Z37	X38	Y38	Z38	X39	Y39	Z39	X40	Y40	Z40	X41	Y41	Z41	X42	Y42	Z42	X43	Y43	Z43	X44	Y44	Z44	X45	Y45	Z45	X46	Y46	Z46	X47	Y47	Z47	X48	Y48	Z48	X49	Y49	Z49	X50	Y50	Z50	X51	Y51	Z51	X52	Y52	Z52	X53	Y53	Z53	X54	Y54	Z54	X55	Y55	Z55	X56	Y56	Z56	

480	4.00000	623.06155	1017.48192	-671.59223	807.99752	1024.68570	-519.57921	566.04817	1044.44068	-499.86109	641.88742	1046.20308	-438.51162	818.71351	875.92735	-415.16788	851.72514	732.29797	-456.28542	804.98418	642.56993	-402.07574	830.29826	540.18972	-405.41147	728.78549	519.28937	-480.45425	506.98466	856.69073	-646.12681	544.87718	750.51348	-688.43107	493.39452	639.02563	-605.71032	489.51055	537.84820	-620.63959	592.47792	514.19896	-559.86435	821.30260	401.21802	-439.90679	832.72893	360.70512	-350.78760	817.50804	226.78755	-395.45661	809.07083	122.74695	-317.62569	754.54237	128.25951	-390.27331	524.42253	395.01635	-624.65367	447.14558	312.70867	-602.51764	501.07742	205.38670	-594.29817	523.43152	122.52334	-543.41505	434.38786	116.78390	-558.07536	726.52514	84.87605	-302.41315	859.13161	79.27630	-469.04046	925.88830	48.58336	-388.45062	452.23832	86.46651	-479.70105	556.33765	74.44686	-661.77828	454.49503	44.80421	-692.24398	484.99679	1515.06964	-570.95444	741.94464	1502.67867	-388.72197	695.43573	1463.52022	-553.18613	600.34596	1519.17082	-467.47017	544.76137	1492.13790	-620.72062	464.53298	1465.53222	-537.81984	777.94214	1477.96626	-456.07235	713.05192	1460.91263	-358.00847	805.12133	1470.91566	-346.79930	882.67163	1446.56310	-379.91591	879.87242	1398.96409	-309.65045	995.16174	1384.20402	-288.81971	980.16639	1331.11159	-321.32930	421.59327	1473.51412	-615.93495	406.91667	1398.55925	-633.29972	393.42796	1441.87345	-714.52854	314.85917	1380.23673	-782.14617	345.76182	1325.83059	-767.12986	1057.07156	1425.98068	-350.61683	1210.36961	1410.88247	-468.32875	1237.83889	1395.32867	-407.78716	350.31485	1412.74866	-850.94593	452.52080	1390.04438	-1028.28206	387.71327	1372.33010	-1046.67952	740.44445	968.29127	-494.31624	611.12626	956.72126	-600.19930	
481	4.00833	623.06601	1017.47807	-671.56917	808.00336	1024.69218	-519.54443	566.02845	1044.43706	-499.83822	641.89049	1046.19041	-438.48409	818.71297	875.91983	-415.17103	851.72922	732.29684	-456.29688	804.99113	642.55407	-402.12677	830.31086	540.19140	-405.43739	728.82091	519.28665	-480.46508	507.01387	856.68830	-646.13945	544.91149	750.50618	-688.50961	493.41497	639.02281	-605.72373	489.53961	537.85003	-620.64465	592.49144	514.19853	-559.86898	821.33586	401.21841	-439.94586	832.73317	360.70556	-350.79024	817.54530	226.78882	-395.49171	809.07161	122.73778	-317.62531	754.56664	128.26296	-390.27530	524.45161	395.03909	-624.66404	447.17049	312.69938	-602.53375	501.12065	205.41356	-594.40472	523.44072	122.51753	-543.43982	434.39530	116.78493	-558.10364	726.55620	84.89066	-302.40854	859.15439	79.27888	-469.05690	925.91252	48.60198	-388.43877	452.23854	86.46746	-479.70623	556.35036	74.44945	-661.77768	454.51797	44.81230	-692.26417	485.01379	1515.06839	-570.95315	741.97214	1502.66689	-388.71481	695.48331	1463.50917	-553.18799	600.35453	1519.17587	-467.46399	544.80729	1492.13767	-620.77929	464.53983	1465.53484	-537.83595	777.95539	1477.96201	-456.05609	713.05850	1460.90107	-358.00344	805.12924	1470.90036	-346.78466	882.67589	1446.56156	-379.86578	879.87672	1398.97877	-309.60986	995.15908	1384.21020	-288.75636	980.15910	1331.10934	-321.28747	421.61480	1473.50445	-615.93526	406.93329	1398.53863	-633.31175	393.44969	1441.86977	-714.52168	314.92180	1380.22817	-782.14869	345.80555	1325.80401	-767.16733	1057.07374	1425.96640	-350.59219	1210.36150	1410.83764	-468.39182	1237.83414	1395.30747	-407.77580	350.35201	1412.74242	-850.94810	452.56881	1389.99001	-1028.25601	387.90992	1372.27217	-1046.69263	740.44550	968.29317	-494.28533	611.13551	956.71527	-600.17725	
482	4.01667	623.07175	1017.47514	-671.54629	808.00713	1024.69685	-519.50743	566.01031	1044.43163	-499.81180	641.89175	1046.17566	-438.45712	818.71647	875.91693	-415.16764	851.73487	732.30385	-456.30867	804.99516	642.53011	-402.15903	830.32457	540.19336	-405.46544	728.86459	519.28515	-480.49986	507.03746	856.68441	-646.14950	544.95395	750.55834	-688.60211	493.43309	639.02275	-605.74866	489.57592	537.85173	-620.66017	592.49996	514.19966	-559.88095	821.37388	401.21944	-439.99240	832.74239	360.71049	-350.78335	817.58290	226.80301	-395.55602	809.07410	122.73585	-317.62370	754.59854	128.27019	-390.29946	524.47971	395.06636	-624.67278	447.21280	312.69734	-602.56261	501.17683	205.43959	-594.50604	523.45951	122.51507	-543.45852	434.40668	116.78960	-558.13021	726.57993	84.89152	-302.41413	859.17588	79.28362	-469.07619	925.94123	48.59903	-388.45238	452.24416	86.47100	-479.70790	556.36975	74.45209	-661.78139	454.55295	44.82798	-692.29932	485.03058	1515.07097	-570.94956	742.00008	1502.66510	-388.70258	695.51721	1463.50636	-553.17876	600.36877	1519.18622	-467.44628	544.85837	1492.11923	-620.82345	464.56010	1465.54332	-537.86873	777.96540	1477.95876	-456.03556	713.06666	1460.90011	-357.99328	805.13801	1470.89827	-346.75750	882.68309	1446.55278	-379.82944	879.88051	1398.98558	-309.58081	995.15507	1384.22036	-288.70039	980.15432	1331.10460	-321.24167	421.64526	1473.49776	-615.92917	406.95495	1398.52614	-633.31403	393.46784	1441.86661	-714.51215	314.98031	1380.21882	-782.15755	345.82162	1325.80938	-767.14814	1057.07805	1425.95071	-350.56817	1210.33160	1410.79492	-468.41100	1237.83456	1395.28004	-407.76032	350.38783	1412.73115	-850.95818	452.68746	1390.05204	-1028.35117	388.17206	1372.21053	-1046.67341	740.44606	968.29286	-494.25425	611.14403	956.70936	-600.15512	
483	4.02500	623.07979	1017.47608	-671.52508	808.00649	1024.69873	-519.46319	565.99586	1044.41725	-499.78049	641.88582	1046.15540	-438.42831	818.72446	875.92004	-415.14891	851.74083	732.32050	-456.30772	805.00055	642.51864	-402.16068	830.33561	540.19366	-405.47978	728.90671	519.28600	-480.54266	507.05009	856.67907	-646.15001	544.99347	750.61330	-688.66729	493.44976	639.02174	-605.77742	489.60839	537.84939	-620.67860	592.50229	514.19994	-559.89505	821.41078	401.22302	-440.03756	832.75550	360.72102	-350.76326	817.61676	226.82867	-395.64635	809.07652	122.73889	-317.62177	754.62855	128.27314	-390.33390	524.50938	395.07609	-624.69324	447.26218	312.70670	-602.59882	501.23402	205.45736	-594.58124	523.48223	122.51410	-543.46492	434.41978	116.79183	-558.14022	726.58900	84.87725	-302.43109	859.19103	79.28708	-469.08607	925.96673	48.57669	-388.48408	452.25051	86.47311	-479.70412	556.39111	74.45159	-661.78589	454.58503	44.83623	-692.32878	485.04852	1515.07353	-570.93834	742.01744	1502.67330	-388.68509	695.53107	1463.50679	-553.16089	600.38334	1519.19381	-467.41794	544.91796	1492.09650	-620.85711	464.58516	1465.54859	-537.89662	777.97159	1477.95813	-456.00512	713.07025	1460.90677	-357.97706	805.14679	1470.90555	-346.71994	882.69074	1446.53774	-379.81171	879.88233	1398.98295	-309.55737	995.14579	1384.22347	-288.63826	980.14947	1331.09626	-321.19215	421.68014	1473.49169	-615.91734	406.97831	1398.51584	-633.30589	393.48341	1441.85602	-714.50871	315.02441	1380.20840	-782.16824	345.81570	1325.83430	-767.08962	1057.08449	1425.92925	-350.54454	1210.31182	1410.74996	-468.34688	1237.83778	1395.24562	-407.72929	350.42545	1412.71340	-850.97030	452.85383	1390.21837	-1028.55219	388.40421	1372.16403	-1046.63681	740.44530	968.28726	-494.22326	611.15174	956.70373	-600.13464	
